<svg id="_x33_0" enable-background="new 0 0 62 62.522" height="512" viewBox="0 0 62 62.522" width="512" xmlns="http://www.w3.org/2000/svg"><g><g><g><path d="m55.31 35.702c-.73-.36-1.52-.62-2.35-.79l-1.96-.39v-3c2.31-1.16 3.82-3.45 3.98-6h.01 1.01c.83 0 1.58-.34 2.12-.88s.88-1.29.88-2.12v7.76c0 2.3-.77 4.52-2.18 6.31-.47-.34-.98-.64-1.51-.89z" fill="#fcd770"/></g><g><path d="m43 31.522v3l-1.96.39c-.83.17-1.62.43-2.35.78-.53.26-1.04.56-1.51.9-1.41-1.79-2.18-4.01-2.18-6.31v-7.76c0 .83.34 1.58.88 2.12s1.29.88 2.12.88h1.01.01c.07 1.2.45 2.34 1.06 3.33.7 1.12 1.7 2.05 2.92 2.67z" fill="#fcd770"/></g><g><path d="m51 16.522h-4c-.63 0-1.22-.3-1.6-.8l-1.27-1.7c-1.23 1.73-3.04 2.98-5.13 3.5v2h-1c-1.66 0-3 1.34-3 3v-7c0-3.32 1.34-6.32 3.51-8.49s5.17-3.51 8.49-3.51c6.63 0 12 5.37 12 12v7c0-1.66-1.34-3-3-3h-1v-3z" fill="#fcd770"/></g><g><path d="m7 16.522v3h-1c-.46 0-.89.1-1.28.29l-1.01-2.52c-.47-1.17-.71-2.42-.71-3.67 0-2.24.76-4.4 2.13-6.14-.08-.29-.13-.6-.13-.91 0-.68.22-1.35.63-1.89l2.37-3.16c1.89 1.89 4.56 2.78 7.2 2.4l2.21-.32c.39-.05.79-.08 1.19-.08 2.32 0 4.42.94 5.94 2.46s2.46 3.62 2.46 5.94c0 1.72-.28 3.43-.82 5.06l-.94 2.81c-.38-.17-.8-.27-1.24-.27h-1v-3h-.76c-1.37 0-2.63-.77-3.24-2l-.34.5c-.52.78-1.22 1.4-2.02 1.84-.8.42-1.7.66-2.64.66l-1-3c-1.28 1.28-3.02 2-4.83 2z" fill="#b27946"/></g><g><path d="m20.96 34.912c3.9.78 6.88 3.76 7.77 7.49l-.01.01c-.05-.04-.1-.06-.15-.09-.96-.52-2.05-.8-3.18-.8h-9.39c-.55 0-1 .45-1 1v2h-1c-.55 0-1 .45-1 1v5h-2v7h-5c-2.76 0-5-2.24-5-5v-7.8c0-4.77 3.36-8.87 8.04-9.81l1.96-.39.59.59c.9.9 2.13 1.41 3.41 1.41s2.51-.51 3.41-1.41l.59-.59z" fill="#b4dd7f"/></g><g><path d="m45.56 38.522h2.88c.92 0 1.72-.62 1.94-1.51l.62-2.49 1.96.39c.83.17 1.62.43 2.35.79-.86 1.68-1.31 3.53-1.31 5.43v9.39h-5v-5c0-.55-.45-1-1-1h-1v-2c0-.55-.45-1-1-1h-6v-.39c0-1.9-.45-3.76-1.31-5.44.73-.35 1.52-.61 2.35-.78l1.96-.39.62 2.49c.22.89 1.02 1.51 1.94 1.51z" fill="#f29ed0"/></g><g><path d="m58.12 24.642c-.54.54-1.29.88-2.12.88h-1.01-.01c.01-.16.02-.31.02-.47v-5.53h1c1.66 0 3 1.34 3 3 0 .83-.34 1.58-.88 2.12z" fill="#f0d0b4"/></g><g><path d="m39 25.052c0 .16.01.31.02.47h-.01-1.01c-.83 0-1.58-.34-2.12-.88s-.88-1.29-.88-2.12c0-1.66 1.34-3 3-3h1z" fill="#f0d0b4"/></g><g><path d="m47 16.522h4 4v3 5.53c0 .16-.01.31-.02.47-.16 2.55-1.67 4.84-3.98 6v3l-.62 2.49c-.22.89-1.02 1.51-1.94 1.51h-2.88c-.92 0-1.72-.62-1.94-1.51l-.62-2.49v-3c-1.22-.62-2.22-1.55-2.92-2.67-.61-.99-.99-2.13-1.06-3.33-.01-.16-.02-.31-.02-.47v-5.53-2c2.09-.52 3.9-1.77 5.13-3.5l1.27 1.7c.38.5.97.8 1.6.8z" fill="#f0d0b4"/></g><g><path d="m25.24 19.792c1.04.47 1.76 1.51 1.76 2.73 0 .83-.34 1.58-.88 2.12s-1.29.88-2.12.88h-1.01-.01c.01-.16.02-.31.02-.47v-5.53h1c.44 0 .86.1 1.24.27z" fill="#f0d0b4"/></g><g><path d="m7 25.052c0 .16.01.31.02.47h-.01-1.01c-.83 0-1.58-.34-2.12-.88s-.88-1.29-.88-2.12c0-1.2.7-2.23 1.72-2.71.39-.19.82-.29 1.28-.29h1z" fill="#f0d0b4"/></g><g><path d="m23 19.522v5.53c0 .16-.01.31-.02.47-.16 2.55-1.67 4.84-3.98 6v3l-.59.59c-.9.9-2.13 1.41-3.41 1.41s-2.51-.51-3.41-1.41l-.59-.59v-3c-2.31-1.16-3.82-3.45-3.98-6-.01-.16-.02-.31-.02-.47v-5.53-3h1.17c1.81 0 3.55-.72 4.83-2l1 3c.94 0 1.84-.24 2.64-.66.8-.44 1.5-1.06 2.02-1.84l.34-.5c.61 1.23 1.87 2 3.24 2h.76z" fill="#f0d0b4"/></g><g><path d="m38.69 35.692c.86 1.68 1.31 3.54 1.31 5.44v.39h-3.39c-1.19 0-2.33.31-3.33.89l-.01-.01c.56-2.36 1.97-4.42 3.91-5.81.47-.34.98-.64 1.51-.9z" fill="#f0d0b4"/></g><g><path d="m33 46.522h-4c-1.28-1.28-3.02-2-4.83-2h-9.17v-2c0-.55.45-1 1-1h9.39c1.13 0 2.22.28 3.18.8.05.03.1.05.15.09.91.51 1.69 1.22 2.28 2.11.59-.89 1.37-1.6 2.28-2.11 1-.58 2.14-.89 3.33-.89h3.39 6c.55 0 1 .45 1 1v2h-9.17c-1.81 0-3.55.72-4.83 2z" fill="#e6e9ed"/></g><g><path d="m49 57.522v3c0 .55-.45 1-1 1h-17c1.1 0 2-.9 2-2v-13c1.28-1.28 3.02-2 4.83-2h9.17 1c.55 0 1 .45 1 1v5h-.5c-.96 0-1.84.39-2.47 1.03-.64.63-1.03 1.51-1.03 2.47 0 1.93 1.57 3.5 3.5 3.5z" fill="#ccd1d9"/></g><g><path d="m29 59.522c0 1.1.9 2 2 2h-17c-.55 0-1-.45-1-1v-3h.5c1.93 0 3.5-1.57 3.5-3.5 0-.96-.39-1.84-1.03-2.47-.63-.64-1.51-1.03-2.47-1.03h-.5v-5c0-.55.45-1 1-1h1 9.17c1.81 0 3.55.72 4.83 2z" fill="#ccd1d9"/></g><g><path d="m31 61.522c-1.1 0-2-.9-2-2v-13h4v13c0 1.1-.9 2-2 2z" fill="#aab2bd"/></g><g><path d="m56.82 36.592c2.56 1.83 4.18 4.82 4.18 8.13v7.8c0 2.76-2.24 5-5 5h-7-.5c-1.93 0-3.5-1.57-3.5-3.5 0-.96.39-1.84 1.03-2.47.63-.64 1.51-1.03 2.47-1.03h.5 5v-9.39c0-1.9.45-3.75 1.31-5.43.53.25 1.04.55 1.51.89z" fill="#f0d0b4"/></g><g><path d="m13 50.522h.5c.96 0 1.84.39 2.47 1.03.64.63 1.03 1.51 1.03 2.47 0 1.93-1.57 3.5-3.5 3.5h-.5-2v-7z" fill="#f0d0b4"/></g></g><g><circle cx="19" cy="19.522" r="1"/><circle cx="11" cy="19.522" r="1"/><path d="m11.211 26.181c.722 1.444 2.174 2.342 3.789 2.342s3.067-.897 3.789-2.342l.105-.211-1.789-.895-.105.211c-.381.763-1.147 1.236-2 1.236s-1.619-.474-2-1.236l-.105-.211-1.789.895z"/><path d="m17.223 23.029-1.274-3.823-1.898.633.726 2.177-1.224.612.894 1.789z"/><circle cx="43" cy="19.522" r="1"/><circle cx="51" cy="19.522" r="1"/><path d="m58.184 36.402c1.175-1.814 1.816-3.953 1.816-6.122v-14.758c0-7.168-5.832-13-13-13s-13 5.832-13 13v14.758c0 2.177.644 4.323 1.828 6.141-1.607 1.389-2.805 3.227-3.397 5.333-.517.332-1.001.72-1.43 1.171-.429-.452-.913-.839-1.43-1.171-1.112-3.957-4.357-7.009-8.413-7.82l-1.158-.231v-1.589c2.057-1.229 3.436-3.266 3.854-5.592h.146c2.206 0 4-1.794 4-4 0-1.285-.619-2.417-1.563-3.149l.69-2.071c.58-1.737.873-3.546.873-5.377 0-5.185-4.218-9.402-9.403-9.402-.441 0-.888.031-1.33.094l-2.208.316c-2.324.33-4.696-.461-6.352-2.117l-.815-.816-3.061 4.081c-.536.715-.831 1.6-.831 2.492 0 .234.025.462.062.687-1.328 1.844-2.062 4.08-2.062 6.358 0 1.391.262 2.751.778 4.043l.71 1.774c-.9.734-1.488 1.838-1.488 3.087 0 2.206 1.794 4 4 4h.146c.418 2.326 1.797 4.363 3.854 5.592v1.589l-1.157.231c-5.124 1.025-8.843 5.561-8.843 10.787v7.802c0 3.309 2.691 6 6 6h6v2c0 1.103.897 2 2 2h17 17c1.103 0 2-.897 2-2v-2h6c3.309 0 6-2.691 6-6v-7.802c0-3.276-1.463-6.281-3.816-8.319zm-5.184 4.726v8.395h-3v-4c0-1.103-.897-2-2-2v-1c0-1.103-.897-2-2-2h-5.036c-.07-1.472-.39-2.925-.949-4.289.395-.139.802-.254 1.22-.338l1.026-.205.39 1.561c.335 1.337 1.532 2.271 2.911 2.271h2.877c1.379 0 2.576-.935 2.911-2.272l.39-1.56 1.026.205c.419.084.823.204 1.218.343-.635 1.549-.984 3.214-.984 4.889zm-17-18.606c0-1.103.897-2 2-2v4c-1.103 0-2-.897-2-2zm4-4.255c1.561-.525 2.962-1.433 4.086-2.63l.515.687c.564.751 1.461 1.199 2.399 1.199h7v7.528c0 2.377-1.321 4.515-3.447 5.577l-.553.276v3.495l-.591 2.365c-.111.446-.511.758-.97.758h-2.877c-.459 0-.859-.312-.97-.757l-.592-2.366v-3.495l-.553-.276c-2.126-1.063-3.447-3.2-3.447-5.577zm16 2.255c1.103 0 2 .897 2 2s-.897 2-2 2zm-2.843 13.413-1.157-.232v-1.589c2.057-1.229 3.436-3.266 3.854-5.592h.146c.732 0 1.409-.212 2-.556v4.314c0 1.753-.512 3.481-1.447 4.956-1.032-.607-2.172-1.057-3.396-1.301zm-6.157-29.413c6.065 0 11 4.935 11 11v3.556c-.591-.344-1.268-.556-2-.556v-1-1-.764c0-1.76-.978-3.343-2.553-4.131l-.895 1.789c.821.411 1.357 1.204 1.437 2.105h-2.489l-2.7-3.6-1.6 1.199 1.8 2.4h-2c-.313 0-.612-.149-.8-.399l-2.4-3.2-1.6 1.199.659.88c-.78.908-1.742 1.64-2.834 2.119.084-1.093.38-2.17.87-3.149l-1.789-.895c-.724 1.446-1.106 3.067-1.106 4.684v.764 1c-.732 0-1.409.212-2 .556v-3.556c0-6.066 4.935-11.001 11-11.001zm-11 25.758v-4.314c.591.344 1.268.556 2 .556h.146c.418 2.326 1.797 4.363 3.854 5.592v1.589l-1.157.231c-1.217.243-2.349.707-3.386 1.317-.942-1.478-1.457-3.211-1.457-4.971zm2.225 6.842c.428 1.085.673 2.236.739 3.401h-2.358c-.555 0-1.101.062-1.632.176.74-1.473 1.866-2.705 3.251-3.577zm-1.62 5.4h9.395v1h-8.171c-1.944 0-3.775.712-5.213 2h-1.081l.297-.445c1.066-1.599 2.851-2.555 4.773-2.555zm-6.14 3h-1.081c-1.437-1.288-3.268-2-5.213-2h-8.171v-1h9.395c1.922 0 3.707.955 4.773 2.555zm-6.465-21v-4c1.103 0 2 .897 2 2s-.897 2-2 2zm-19.364-7.603c-.422-1.056-.636-2.166-.636-3.301 0-1.487.38-2.954 1.086-4.253.338.37.741.688 1.209.922l.257.129.897-1.787-.259-.13c-.734-.366-1.19-1.104-1.19-1.926 0-.463.153-.921.431-1.292l1.72-2.293c2.019 1.576 4.632 2.287 7.191 1.925l2.207-.316c.348-.049.7-.074 1.048-.074 4.082 0 7.403 3.32 7.403 7.402 0 1.616-.259 3.213-.77 4.745l-.638 1.912c-.195-.029-.39-.06-.592-.06v-1-1c0-1.463-.346-2.928-1-4.236l-.105-.211-1.789.895.105.211c.364.728.607 1.518.719 2.324-.873-.101-1.635-.629-2.035-1.43l-.771-1.541-1.292 1.938c-.724 1.087-1.861 1.803-3.129 1.997l-1.266-3.797-1.144 1.144c-1.101 1.101-2.565 1.707-4.122 1.707h-.103c.11-.813.354-1.608.721-2.342l.105-.211-1.789-.895-.105.211c-.505 1.01-.821 2.113-.941 3.236h-.059v1 1 1c-.238 0-.468.03-.695.07zm-.636 5.603c0-1.103.897-2 2-2v4c-1.103 0-2-.897-2-2zm4 2.529v-7.528h.171c1.567 0 3.064-.457 4.338-1.31l.77 2.31h.721c1.945 0 3.768-.849 5.014-2.305.791.772 1.847 1.224 2.986 1.282v7.551c0 2.377-1.321 4.515-3.447 5.577l-.553.276v3.204l-.293.293c-1.446 1.445-3.968 1.445-5.414 0l-.293-.293v-3.204l-.553-.276c-2.126-1.063-3.447-3.2-3.447-5.577zm-6 27.471v-7.802c0-4.275 3.043-7.987 7.235-8.825l1.436-.288.208.208c1.101 1.101 2.564 1.707 4.121 1.707s3.021-.606 4.121-1.707l.208-.208 1.436.288c2.748.549 5.034 2.362 6.262 4.803-.531-.114-1.076-.176-1.632-.176h-9.395c-1.103 0-2 .897-2 2v1c-1.103 0-2 .897-2 2v4h-3v-5.586c0-1.179-.459-2.287-1.292-3.121l-1.415 1.414c.456.457.707 1.063.707 1.708v5.626c-1.021.095-1.973.518-2.708 1.253l1.415 1.414c.455-.456 1.062-.707 1.707-.707h2.586v5h-4c-2.206-.001-4-1.794-4-4.001zm11.5 4h-1.5v-5h1.5c1.378 0 2.5 1.121 2.5 2.5s-1.122 2.5-2.5 2.5zm.5 1.95c2.244-.252 4-2.139 4-4.449s-1.756-4.197-4-4.449v-4.051h10.171c1.424 0 2.767.513 3.829 1.441v12.559c0 .352.072.686.184 1h-14.184zm16 1.05v-12h2v12c0 .552-.449 1-1 1s-1-.448-1-1zm3.816 1c.112-.314.184-.648.184-1v-12.558c1.062-.929 2.405-1.441 3.829-1.441h10.171v4.051c-2.244.252-4 2.139-4 4.449s1.756 4.197 4 4.449v2.051h-14.184zm26.184-8c0 2.206-1.794 4-4 4h-7.5c-1.378 0-2.5-1.121-2.5-2.5s1.122-2.5 2.5-2.5h6.086c.645 0 1.251.251 1.707.707l1.415-1.414c-.734-.735-1.686-1.157-2.708-1.253v-8.435c0-1.375.276-2.744.782-4.022 2.556 1.613 4.218 4.459 4.218 7.616z"/><path d="m43.211 26.181c.722 1.444 2.174 2.342 3.789 2.342s3.067-.897 3.789-2.342l.105-.211-1.789-.895-.105.211c-.381.763-1.147 1.236-2 1.236s-1.619-.474-2-1.236l-.105-.211-1.789.895z"/><path d="m48.447 22.628-1.224-.612.726-2.177-1.898-.633-1.274 3.823 2.776 1.388z"/></g></g></svg>